# xmcd CD database file
#
# Track frame offsets:
#	150
#	22192
#	38407
#	57062
#	79415
#	99732
#	116942
#	135285
#	153957
#	173185
#
# Disc length: 2531 seconds
#
# Revision: 0
# Processed by: cddbd v1.5.2PL0 Copyright (c) Steve Scherf et al.
# Submitted via: CdAid (MTCDDB.DLL V2003.12.21)
#
DISCID=7b09e10a
DTITLE=Sandro e Nando - Sandro e Nando
DYEAR=1997
DGENRE=Folk
TTITLE0=Começar tudo outra vez
TTITLE1=Sai do meu pé
TTITLE2=Cadê você
TTITLE3=Uma noite em Madrid
TTITLE4=Ela não quer voltar
TTITLE5=Bailão gostoso
TTITLE6=Peão do Brasil
TTITLE7=Quero terminar
TTITLE8=Não mais sozinho
TTITLE9=Dupla paixão (Doce feitiço)
EXTD=ID3G:  80 YEAR: 1997
EXTT0=
EXTT1=
EXTT2=
EXTT3=
EXTT4=
EXTT5=
EXTT6=
EXTT7=
EXTT8=
EXTT9=
PLAYORDER=
